HIERARCHY
ROOT mixamorig:Hips
{
	OFFSET 0.000000 201.639420 0.000000
	CHANNELS 6 Xposition Yposition Zposition Xrotation Yrotation Zrotation
	JOINT mixamorig:Spine
	{
		OFFSET 0.006200 19.524994 -2.481800
		CHANNELS 3 Xrotation Yrotation Zrotation
		JOINT mixamorig:Spine1
		{
			OFFSET -0.000900 22.835007 -2.825400
			CHANNELS 3 Xrotation Yrotation Zrotation
			JOINT mixamorig:Spine2
			{
				OFFSET -0.020600 26.552490 -3.193300
				CHANNELS 3 Xrotation Yrotation Zrotation
				JOINT mixamorig:Neck
				{
					OFFSET -0.060000 30.701813 1.352200
					CHANNELS 3 Xrotation Yrotation Zrotation
					JOINT mixamorig:Head
					{
						OFFSET -0.087200 22.547607 3.670900
						CHANNELS 3 Xrotation Yrotation Zrotation
						JOINT mixamorig:HeadTop_End
						{
							OFFSET -0.830600 40.355194 7.893500
							CHANNELS 3 Xrotation Yrotation Zrotation
							End Site
							{
								OFFSET 0.000000 30.592346 0.000000
							}
						}
						JOINT mixamorig:RightEye
						{
							OFFSET -6.302100 18.118591 16.197100
							CHANNELS 3 Xrotation Yrotation Zrotation
							End Site
							{
								OFFSET 0.000000 30.592346 0.000000
							}
						}
						JOINT mixamorig:LeftEye
						{
							OFFSET 6.741500 18.382690 16.401899
							CHANNELS 3 Xrotation Yrotation Zrotation
							End Site
							{
								OFFSET 0.000000 30.592346 0.000000
							}
						}
					}
				}
				JOINT mixamorig:LeftShoulder
				{
					OFFSET 11.924900 18.230499 1.425400
					CHANNELS 3 Xrotation Yrotation Zrotation
					JOINT mixamorig:LeftArm
					{
						OFFSET 25.435989 -0.697632 -5.229300
						CHANNELS 3 Xrotation Yrotation Zrotation
						JOINT mixamorig:LeftForeArm
						{
							OFFSET 54.684776 0.000000 0.000000
							CHANNELS 3 Xrotation Yrotation Zrotation
							JOINT mixamorig:LeftHand
							{
								OFFSET 55.098175 0.000000 0.000000
								CHANNELS 3 Xrotation Yrotation Zrotation
								JOINT mixamorig:LeftHandMiddle1
								{
									OFFSET 23.369751 0.000000 0.000000
									CHANNELS 3 Xrotation Yrotation Zrotation
									JOINT mixamorig:LeftHandMiddle2
									{
										OFFSET 6.378677 0.000000 0.000000
										CHANNELS 3 Xrotation Yrotation Zrotation
										JOINT mixamorig:LeftHandMiddle3
										{
											OFFSET 6.148331 0.000000 0.000000
											CHANNELS 3 Xrotation Yrotation Zrotation
											JOINT mixamorig:LeftHandMiddle4
											{
												OFFSET 6.582504 0.000000 0.000000
												CHANNELS 3 Xrotation Yrotation Zrotation
												End Site
												{
													OFFSET -1.168900 6.395691 1.028606
												}
											}
										}
									}
								}
								JOINT mixamorig:LeftHandThumb1
								{
									OFFSET 7.235672 -3.848206 5.434273
									CHANNELS 3 Xrotation Yrotation Zrotation
									JOINT mixamorig:LeftHandThumb2
									{
										OFFSET 6.568451 -3.792297 3.792300
										CHANNELS 3 Xrotation Yrotation Zrotation
										JOINT mixamorig:LeftHandThumb3
										{
											OFFSET 6.063080 -3.500519 3.500518
											CHANNELS 3 Xrotation Yrotation Zrotation
											JOINT mixamorig:LeftHandThumb4
											{
												OFFSET 4.793182 -2.767334 2.767349
												CHANNELS 3 Xrotation Yrotation Zrotation
												End Site
												{
													OFFSET 0.101639 6.054260 1.275483
												}
											}
										}
									}
								}
								JOINT mixamorig:LeftHandIndex1
								{
									OFFSET 23.101074 -0.309540 4.992809
									CHANNELS 3 Xrotation Yrotation Zrotation
									JOINT mixamorig:LeftHandIndex2
									{
										OFFSET 6.226883 0.000000 0.000000
										CHANNELS 3 Xrotation Yrotation Zrotation
										JOINT mixamorig:LeftHandIndex3
										{
											OFFSET 6.094330 0.000000 0.000000
											CHANNELS 3 Xrotation Yrotation Zrotation
											JOINT mixamorig:LeftHandIndex4
											{
												OFFSET 5.482605 0.000000 0.000000
												CHANNELS 3 Xrotation Yrotation Zrotation
												End Site
												{
													OFFSET -1.427902 5.233032 0.797164
												}
											}
										}
									}
								}
								JOINT mixamorig:LeftHandRing1
								{
									OFFSET 22.299240 0.021149 -3.964172
									CHANNELS 3 Xrotation Yrotation Zrotation
									JOINT mixamorig:LeftHandRing2
									{
										OFFSET 6.321869 0.000000 0.000000
										CHANNELS 3 Xrotation Yrotation Zrotation
										JOINT mixamorig:LeftHandRing3
										{
											OFFSET 5.899796 0.000000 0.000000
											CHANNELS 3 Xrotation Yrotation Zrotation
											JOINT mixamorig:LeftHandRing4
											{
												OFFSET 6.517899 0.000000 0.000000
												CHANNELS 3 Xrotation Yrotation Zrotation
												End Site
												{
													OFFSET -1.637299 6.232208 0.980890
												}
											}
										}
									}
								}
								JOINT mixamorig:LeftHandPinky1
								{
									OFFSET 20.463791 -0.302338 -8.562233
									CHANNELS 3 Xrotation Yrotation Zrotation
									JOINT mixamorig:LeftHandPinky2
									{
										OFFSET 6.908646 0.000000 0.000000
										CHANNELS 3 Xrotation Yrotation Zrotation
										JOINT mixamorig:LeftHandPinky3
										{
											OFFSET 4.622849 0.000000 0.000000
											CHANNELS 3 Xrotation Yrotation Zrotation
											JOINT mixamorig:LeftHandPinky4
											{
												OFFSET 5.216080 0.000000 0.000000
												CHANNELS 3 Xrotation Yrotation Zrotation
												End Site
												{
													OFFSET -0.606308 5.116241 0.814926
												}
											}
										}
									}
								}
							}
						}
					}
				}
				JOINT mixamorig:RightShoulder
				{
					OFFSET -12.001300 18.284088 1.348900
					CHANNELS 3 Xrotation Yrotation Zrotation
					JOINT mixamorig:RightArm
					{
						OFFSET -25.308500 -0.751312 -5.164599
						CHANNELS 3 Xrotation Yrotation Zrotation
						JOINT mixamorig:RightForeArm
						{
							OFFSET -54.684429 0.000000 0.000000
							CHANNELS 3 Xrotation Yrotation Zrotation
							JOINT mixamorig:RightHand
							{
								OFFSET -55.150291 0.000000 0.000000
								CHANNELS 3 Xrotation Yrotation Zrotation
								JOINT mixamorig:RightHandMiddle1
								{
									OFFSET -23.317566 0.000000 0.000000
									CHANNELS 3 Xrotation Yrotation Zrotation
									JOINT mixamorig:RightHandMiddle2
									{
										OFFSET -6.378403 0.000000 0.000000
										CHANNELS 3 Xrotation Yrotation Zrotation
										JOINT mixamorig:RightHandMiddle3
										{
											OFFSET -6.148193 0.000000 0.000000
											CHANNELS 3 Xrotation Yrotation Zrotation
											JOINT mixamorig:RightHandMiddle4
											{
												OFFSET -6.583389 0.000000 0.000000
												CHANNELS 3 Xrotation Yrotation Zrotation
												End Site
												{
													OFFSET 1.171692 6.395905 1.029786
												}
											}
										}
									}
								}
								JOINT mixamorig:RightHandThumb1
								{
									OFFSET -7.190521 -3.860474 5.435846
									CHANNELS 3 Xrotation Yrotation Zrotation
									JOINT mixamorig:RightHandThumb2
									{
										OFFSET -6.567429 -3.791718 3.791708
										CHANNELS 3 Xrotation Yrotation Zrotation
										JOINT mixamorig:RightHandThumb3
										{
											OFFSET -6.062469 -3.500153 3.500166
											CHANNELS 3 Xrotation Yrotation Zrotation
											JOINT mixamorig:RightHandThumb4
											{
												OFFSET -4.792618 -2.767029 2.767022
												CHANNELS 3 Xrotation Yrotation Zrotation
												End Site
												{
													OFFSET -0.100327 6.053253 1.276754
												}
											}
										}
									}
								}
								JOINT mixamorig:RightHandIndex1
								{
									OFFSET -23.048981 -0.310791 4.992554
									CHANNELS 3 Xrotation Yrotation Zrotation
									JOINT mixamorig:RightHandIndex2
									{
										OFFSET -6.227539 0.000000 0.000000
										CHANNELS 3 Xrotation Yrotation Zrotation
										JOINT mixamorig:RightHandIndex3
										{
											OFFSET -6.095047 0.000000 0.000000
											CHANNELS 3 Xrotation Yrotation Zrotation
											JOINT mixamorig:RightHandIndex4
											{
												OFFSET -5.484772 0.000000 0.000000
												CHANNELS 3 Xrotation Yrotation Zrotation
												End Site
												{
													OFFSET 1.420593 5.237305 0.797056
												}
											}
										}
									}
								}
								JOINT mixamorig:RightHandRing1
								{
									OFFSET -22.246323 0.020569 -3.963762
									CHANNELS 3 Xrotation Yrotation Zrotation
									JOINT mixamorig:RightHandRing2
									{
										OFFSET -6.322128 0.000000 0.000000
										CHANNELS 3 Xrotation Yrotation Zrotation
										JOINT mixamorig:RightHandRing3
										{
											OFFSET -5.900024 0.000000 0.000000
											CHANNELS 3 Xrotation Yrotation Zrotation
											JOINT mixamorig:RightHandRing4
											{
												OFFSET -6.518356 0.000000 0.000000
												CHANNELS 3 Xrotation Yrotation Zrotation
												End Site
												{
													OFFSET 1.636398 6.232697 0.982186
												}
											}
										}
									}
								}
								JOINT mixamorig:RightHandPinky1
								{
									OFFSET -20.411011 -0.303314 -8.561701
									CHANNELS 3 Xrotation Yrotation Zrotation
									JOINT mixamorig:RightHandPinky2
									{
										OFFSET -6.907349 0.000000 0.000000
										CHANNELS 3 Xrotation Yrotation Zrotation
										JOINT mixamorig:RightHandPinky3
										{
											OFFSET -4.623840 0.000000 0.000000
											CHANNELS 3 Xrotation Yrotation Zrotation
											JOINT mixamorig:RightHandPinky4
											{
												OFFSET -5.218353 0.000000 0.000000
												CHANNELS 3 Xrotation Yrotation Zrotation
												End Site
												{
													OFFSET 0.602097 5.118835 0.816273
												}
											}
										}
									}
								}
							}
						}
					}
				}
			}
		}
	}
	JOINT mixamorig:LeftUpLeg
	{
		OFFSET 18.168400 -13.561905 -0.039000
		CHANNELS 3 Xrotation Yrotation Zrotation
		JOINT mixamorig:LeftLeg
		{
			OFFSET 0.577358 -80.825211 -3.695000
			CHANNELS 3 Xrotation Yrotation Zrotation
			JOINT mixamorig:LeftFoot
			{
				OFFSET -0.577356 -83.370262 -6.520700
				CHANNELS 3 Xrotation Yrotation Zrotation
				JOINT mixamorig:LeftToeBase
				{
					OFFSET 0.750401 -20.798306 25.135401
					CHANNELS 3 Xrotation Yrotation Zrotation
					JOINT mixamorig:LeftToe_End
					{
						OFFSET -0.000500 0.001200 19.917799
						CHANNELS 3 Xrotation Yrotation Zrotation
						End Site
						{
							OFFSET 0.000000 19.917805 0.000000
						}
					}
				}
			}
		}
	}
	JOINT mixamorig:RightUpLeg
	{
		OFFSET -18.162500 -13.585098 -0.041000
		CHANNELS 3 Xrotation Yrotation Zrotation
		JOINT mixamorig:RightLeg
		{
			OFFSET -0.595024 -80.945297 -3.631900
			CHANNELS 3 Xrotation Yrotation Zrotation
			JOINT mixamorig:RightFoot
			{
				OFFSET 0.595024 -83.218193 -6.561200
				CHANNELS 3 Xrotation Yrotation Zrotation
				JOINT mixamorig:RightToeBase
				{
					OFFSET -0.753601 -20.807106 25.115000
					CHANNELS 3 Xrotation Yrotation Zrotation
					JOINT mixamorig:RightToe_End
					{
						OFFSET 0.000299 0.001700 19.918200
						CHANNELS 3 Xrotation Yrotation Zrotation
						End Site
						{
							OFFSET 0.000000 19.918203 0.000000
						}
					}
				}
			}
		}
	}
}
MOTION
Frames: 4
Frame Time: 0.033333
9.960928 143.567810 -0.495808 -161.858271 -93.610085 -158.922560 4.317906 -1.751985 -3.195083 8.126509 -3.497361 -3.616707 8.085616 -3.569196 -3.631018 1.379620 0.930801 4.634242 -0.207012 11.232244 -2.659984 0.000000 -0.000000 0.000000 0.000000 -0.000000 0.000000 0.000000 -0.000000 0.000000 2.376357 -7.362275 -10.548034 -25.039784 -44.633787 -55.360753 -0.000025 -28.181446 -0.000030 -63.395610 26.101377 -27.737608 0.000092 0.036150 -0.299711 0.000003 0.001933 -0.015974 0.000000 0.000005 0.000008 -0.000001 -0.000001 0.000001 -1.520325 3.681524 5.819030 12.211100 14.464537 -5.838161 3.407308 5.050072 -0.136145 -0.000002 0.000001 0.000002 0.000110 0.038094 -0.315689 0.000003 0.000020 -0.000029 -0.000010 -0.000009 -0.000004 0.000001 0.000002 0.000005 0.000103 0.038096 -0.315696 0.000003 0.000016 -0.000016 0.000009 0.000015 0.000012 -0.000000 -0.000002 -0.000001 0.004398 4.092394 0.194569 -0.018090 -4.054275 -0.511054 0.000001 0.000018 0.000022 -0.000002 0.000002 -0.000001 -4.148288 -13.555740 9.439800 -67.156462 63.825570 50.592304 -0.000075 86.959066 0.000053 -14.973349 6.936591 -1.102067 0.000000 -0.000015 -0.000003 -0.000002 -0.000004 0.000077 -0.000001 0.000005 0.000006 -0.000001 -0.000001 -0.000002 -1.849258 -3.581758 -6.586126 29.143628 -15.560243 22.478656 9.922374 -5.781507 7.581618 -0.000001 0.000001 0.000000 0.000002 0.000008 0.000001 -0.000002 -0.000014 0.000041 0.000003 0.000007 0.000005 0.000001 -0.000001 0.000001 0.000001 -0.000014 -0.000000 -0.000002 -0.000018 0.000073 0.000001 0.000012 0.000006 -0.000002 -0.000002 0.000004 0.000002 -0.000011 0.000003 0.000003 -0.000017 -0.000000 0.000002 0.000035 0.000002 0.000000 0.000001 0.000002 -56.052555 1.578254 49.949348 65.879681 -7.846020 -0.658191 -6.001338 -7.760641 -23.513968 0.054256 0.000057 -0.000002 0.000000 0.000001 0.000000 -53.576465 9.518618 -44.952685 73.469517 7.863253 0.684958 -19.106276 8.366625 27.384014 0.082382 0.000005 -0.000000 -0.000000 0.000000 0.000000 
10.028444 143.977036 1.341043 -151.294414 -92.165528 -148.727287 4.460672 -2.201674 -3.252453 8.439872 -4.483165 -3.300039 8.381701 -4.571757 -3.317544 1.211799 1.026955 4.828904 -0.500954 11.916407 -2.455404 0.000001 0.000000 0.000000 0.000001 0.000000 0.000000 0.000001 0.000000 0.000000 2.228534 -6.586179 -10.331727 -23.646489 -47.080460 -54.081626 -0.000021 -29.686126 -0.000005 -66.246879 24.745280 -28.625203 0.000092 0.036149 -0.299709 0.000004 0.001930 -0.015979 0.000000 0.000004 0.000014 0.000001 -0.000000 0.000001 -1.520326 3.681524 5.819027 12.211103 14.464534 -5.838167 3.407305 5.050073 -0.136141 0.000000 0.000001 -0.000002 0.000111 0.038091 -0.315691 0.000001 0.000020 -0.000028 -0.000011 -0.000011 -0.000000 -0.000000 0.000001 -0.000001 0.000102 0.038093 -0.315691 -0.000001 0.000016 -0.000007 0.000007 0.000019 0.000013 -0.000002 -0.000000 -0.000003 0.004396 4.092394 0.194565 -0.018090 -4.054276 -0.511050 0.000005 0.000016 0.000018 -0.000004 -0.000000 0.000002 -4.255866 -13.971808 9.349273 -67.889048 61.135418 51.645690 -0.000045 84.531029 0.000016 -15.714232 8.934368 -0.664622 0.000001 -0.000019 -0.000004 -0.000002 0.000001 0.000079 0.000000 0.000004 0.000007 0.000003 -0.000001 0.000002 -1.849262 -3.581762 -6.586128 29.143628 -15.560240 22.478658 9.922374 -5.781502 7.581618 -0.000001 0.000000 -0.000000 0.000002 0.000003 -0.000002 -0.000001 -0.000017 0.000036 -0.000000 0.000006 -0.000006 0.000001 -0.000000 -0.000004 -0.000001 -0.000015 0.000001 -0.000001 -0.000020 0.000074 -0.000001 0.000009 0.000006 0.000000 -0.000001 0.000003 0.000000 -0.000014 -0.000002 0.000001 -0.000020 0.000006 0.000001 0.000035 -0.000001 0.000000 -0.000001 -0.000001 -55.547026 1.807511 50.512585 67.026087 -7.873051 -0.631286 -7.231328 -6.869598 -23.220097 0.049447 -0.000048 0.000013 0.000000 0.000003 -0.000000 -53.608150 9.334345 -44.488195 71.662406 7.858986 0.720321 -17.985310 9.314364 27.929427 0.082499 -0.000011 0.000004 0.000000 0.000000 0.000000 
10.149158 144.464615 3.192696 -111.694323 -91.153772 -109.636469 4.548657 -2.601790 -3.218055 8.656188 -5.353277 -2.867955 8.582011 -5.455979 -2.887233 1.167187 1.190866 4.831261 -0.611091 12.698992 -2.306701 -0.000000 0.000000 -0.000000 -0.000000 0.000000 -0.000000 -0.000000 0.000000 -0.000000 2.040071 -5.547067 -10.100806 -22.384215 -49.879850 -52.846266 -0.000003 -32.020876 -0.000006 -68.372106 23.167997 -30.022708 0.000094 0.036153 -0.299709 0.000005 0.001932 -0.015976 -0.000002 0.000005 0.000010 -0.000001 -0.000000 -0.000007 -1.520330 3.681527 5.819034 12.211099 14.464536 -5.838161 3.407309 5.050071 -0.136145 -0.000001 -0.000003 -0.000001 0.000111 0.038094 -0.315686 0.000004 0.000018 -0.000033 -0.000009 -0.000011 -0.000000 0.000003 -0.000001 -0.000004 0.000104 0.038096 -0.315694 0.000004 0.000019 -0.000014 0.000009 0.000017 0.000012 -0.000001 0.000001 0.000001 0.004397 4.092395 0.194578 -0.018093 -4.054274 -0.511049 0.000003 0.000016 0.000017 0.000000 0.000001 0.000000 -4.370032 -14.509654 9.206426 -68.532131 58.671899 53.106439 -0.000018 81.539618 0.000021 -16.437001 10.950190 -0.063003 0.000000 -0.000019 -0.000005 -0.000002 -0.000005 0.000072 0.000000 0.000003 0.000010 0.000000 -0.000001 -0.000000 -1.849259 -3.581763 -6.586126 29.143628 -15.560243 22.478656 9.922373 -5.781502 7.581619 0.000001 -0.000001 -0.000000 0.000001 0.000006 -0.000001 -0.000000 -0.000017 0.000036 -0.000001 0.000007 0.000007 -0.000001 0.000001 -0.000003 0.000000 -0.000017 -0.000005 -0.000003 -0.000012 0.000076 0.000002 0.000009 0.000006 0.000000 0.000001 0.000003 -0.000001 -0.000014 -0.000001 0.000004 -0.000021 0.000005 0.000000 0.000033 0.000001 0.000000 0.000001 -0.000000 -55.183390 1.956168 51.083569 68.053273 -7.898211 -0.602842 -8.381843 -5.970152 -22.968786 0.044345 -0.000024 0.000016 -0.000000 0.000000 0.000000 -53.665332 9.050905 -43.773924 69.764256 7.827220 0.747071 -16.761899 10.050735 28.213642 0.082611 -0.000000 -0.000002 -0.000000 0.000000 0.000000 
10.297356 145.010986 5.079953 -53.549786 -91.651228 -52.125500 4.614068 -2.962004 -3.064663 8.831494 -6.115827 -2.294214 8.744163 -6.228696 -2.314212 1.119009 1.410080 4.619236 -0.594354 13.498195 -2.263129 -0.000001 -0.000000 -0.000000 -0.000001 -0.000000 -0.000000 -0.000001 -0.000000 -0.000000 1.831868 -4.341044 -9.872496 -21.889819 -53.061755 -51.960845 0.000003 -35.669676 0.000003 -69.239793 21.394903 -31.896181 0.000094 0.036149 -0.299711 0.000003 0.001932 -0.015979 -0.000002 0.000006 0.000007 0.000002 0.000002 -0.000003 -1.520328 3.681524 5.819029 12.211098 14.464534 -5.838161 3.407307 5.050072 -0.136139 -0.000002 -0.000001 -0.000002 0.000109 0.038092 -0.315693 -0.000001 0.000018 -0.000031 -0.000011 -0.000010 -0.000003 0.000001 0.000001 -0.000000 0.000103 0.038094 -0.315699 0.000003 0.000017 -0.000009 0.000005 0.000016 0.000017 -0.000001 0.000000 0.000001 0.004396 4.092393 0.194570 -0.018091 -4.054274 -0.511047 0.000004 0.000015 0.000015 -0.000002 0.000000 -0.000001 -4.315816 -14.712902 9.077939 -68.801903 56.253482 54.021851 -0.000010 78.199068 0.000008 -17.159662 12.915572 0.721476 0.000003 -0.000015 -0.000004 -0.000001 -0.000004 0.000076 0.000000 0.000003 0.000005 0.000005 -0.000001 -0.000000 -1.849259 -3.581761 -6.586127 29.143632 -15.560247 22.478656 9.922374 -5.781502 7.581618 0.000000 0.000001 0.000000 0.000002 0.000007 -0.000003 -0.000001 -0.000015 0.000036 0.000000 0.000011 0.000005 0.000002 -0.000000 -0.000003 0.000002 -0.000015 -0.000002 -0.000000 -0.000019 0.000075 0.000000 0.000011 0.000006 0.000000 0.000001 0.000000 0.000003 -0.000014 0.000002 0.000002 -0.000020 0.000006 0.000000 0.000031 -0.000002 -0.000002 0.000002 0.000001 -55.133174 2.052341 51.703873 68.999268 -7.927488 -0.576603 -9.467802 -5.137785 -22.714460 0.038962 0.000023 -0.000010 0.000000 -0.000001 -0.000000 -53.798767 8.699404 -42.846890 67.723484 7.788857 0.764720 -15.460705 10.557906 28.417255 0.082718 -0.000002 0.000008 -0.000000 -0.000001 -0.000000 
